<svg width="24" height="24" viewBox="0 0 24 24" fill="none" xmlns="http://www.w3.org/2000/svg">
<g clip-path="url(#clip0)">
<path d="M18.4232 1.41176H18.3527V0H16.9409V1.41176H15.5291H14.1174H12.7056V0H11.2938V1.41176H9.88207H8.4703H7.05854V0H5.64677V1.41176H5.57618C4.05821 1.41176 2.82324 2.64673 2.82324 4.16471V21.2471C2.82324 22.765 4.05821 24 5.57618 24H18.4232C19.9412 24 21.1762 22.765 21.1762 21.2471V4.16471C21.1762 2.64673 19.9412 1.41176 18.4232 1.41176ZM19.7644 21.2471C19.7644 21.9866 19.1628 22.5882 18.4232 22.5882H5.57618C4.83665 22.5882 4.23501 21.9866 4.23501 21.2471V4.16471C4.23501 3.42518 4.83665 2.82353 5.57618 2.82353H5.64677V4.23529H7.05854V2.82353H8.4703H9.88207H11.2938V4.23529H12.7056V2.82353H14.1174H15.5291H16.9409V4.23529H18.3527V2.82353H18.4232C19.1628 2.82353 19.7644 3.42518 19.7644 4.16471V21.2471Z" fill="white"/>
<path d="M11.2946 10.8824H12.7063V9.47063H14.1181V8.05886H12.7063V6.64709H11.2946V8.05886H9.88281V9.47063H11.2946V10.8824Z" fill="white"/>
<path d="M6.35254 14.1176H8.47019V15.5294H6.35254V14.1176Z" fill="white"/>
<path d="M9.88281 14.1176H17.6475V15.5294H9.88281V14.1176Z" fill="white"/>
<path d="M6.35254 16.9412H8.47019V18.353H6.35254V16.9412Z" fill="white"/>
<path d="M9.88281 16.9412H17.6475V18.353H9.88281V16.9412Z" fill="white"/>
</g>
<defs>
<clipPath id="clip0">
<rect width="24" height="24" fill="white"/>
</clipPath>
</defs>
</svg>
